<?xml version="1.0" encoding="UTF-8" standalone="no"?>
<!DOCTYPE svg PUBLIC "-//W3C//DTD SVG 1.0//EN" "http://www.w3.org/TR/2001/PR-SVG-20010719/DTD/svg10.dtd">
<svg width="32cm" height="34cm" viewBox="-105 95 629 673" xmlns="http://www.w3.org/2000/svg" xmlns:xlink="http://www.w3.org/1999/xlink">
  <g>
    <g>
      <rect style="fill: #dae9ef" x="0" y="200" width="400" height="500"/>
      <rect style="fill: none; fill-opacity:0; stroke-width: 2; stroke: #ffffff" x="0" y="200" width="400" height="500"/>
    </g>
    <g>
      <line style="fill: none; fill-opacity:0; stroke-width: 8; stroke: #000000" x1="-100" y1="200" x2="423.556" y2="200"/>
      <polygon style="fill: #000000" points="431.056,200 421.056,205 423.556,200 421.056,195 "/>
      <polygon style="fill: none; fill-opacity:0; stroke-width: 8; stroke: #000000" points="431.056,200 421.056,205 423.556,200 421.056,195 "/>
    </g>
    <g>
      <line style="fill: none; fill-opacity:0; stroke-width: 8; stroke: #000000" x1="0" y1="100" x2="0" y2="743.556"/>
      <polygon style="fill: #000000" points="0,751.056 -5,741.056 0,743.556 5,741.056 "/>
      <polygon style="fill: none; fill-opacity:0; stroke-width: 8; stroke: #000000" points="0,751.056 -5,741.056 0,743.556 5,741.056 "/>
    </g>
    <line style="fill: none; fill-opacity:0; stroke-width: 6; stroke-dasharray: 4; stroke: #000000" x1="100" y1="100" x2="100" y2="740"/>
    <line style="fill: none; fill-opacity:0; stroke-width: 6; stroke-dasharray: 4; stroke: #000000" x1="200" y1="100" x2="200" y2="740"/>
    <line style="fill: none; fill-opacity:0; stroke-width: 6; stroke-dasharray: 4; stroke: #000000" x1="300" y1="100" x2="300" y2="740"/>
    <line style="fill: none; fill-opacity:0; stroke-width: 6; stroke-dasharray: 4; stroke: #000000" x1="400" y1="100" x2="399" y2="745"/>
    <line style="fill: none; fill-opacity:0; stroke-width: 6; stroke-dasharray: 4; stroke: #000000" x1="-100" y1="300" x2="420" y2="300"/>
    <line style="fill: none; fill-opacity:0; stroke-width: 6; stroke-dasharray: 4; stroke: #000000" x1="-100" y1="400" x2="420" y2="400"/>
    <line style="fill: none; fill-opacity:0; stroke-width: 6; stroke-dasharray: 4; stroke: #000000" x1="-100" y1="500" x2="420" y2="500"/>
    <line style="fill: none; fill-opacity:0; stroke-width: 6; stroke-dasharray: 4; stroke: #000000" x1="-100" y1="600" x2="420" y2="600"/>
    <line style="fill: none; fill-opacity:0; stroke-width: 6; stroke-dasharray: 4; stroke: #000000" x1="-100" y1="700" x2="420" y2="700"/>
    <g>
      <path style="fill: #000000" d="M 350.313 671.016 C 350.313,672.109 350.156,672.969 349.844,673.75 C 349.531,674.531 349.141,675.234 348.672,675.781 C 348.203,676.328 347.578,676.719 346.875,677.031 C 346.094,677.266 345.234,677.344 344.375,677.422 C 343.594,677.344 342.891,677.344 342.188,677.266 C 341.406,677.109 340.703,676.875 340,676.563 L 340,660.391 L 342.109,660.391 L 342.109,665 L 342.031,667.266 C 342.5,666.484 343.125,665.859 343.906,665.547 C 344.531,665.234 345.313,665.078 346.094,665.078 C 346.797,665.078 347.344,665.234 347.891,665.547 C 348.359,665.859 348.828,666.25 349.219,666.719 C 349.531,667.266 349.766,667.891 350,668.594 C 350.156,669.375 350.313,670.234 350.313,671.016 L 350.313,671.016z"/>
      <path style="fill: #ffffff" d="M 348.125 671.172 C 348.047,670.547 348.047,670 347.969,669.453 C 347.891,668.906 347.734,668.438 347.578,668.047 C 347.344,667.734 347.109,667.422 346.797,667.188 C 346.484,667.031 346.094,666.953 345.703,666.875 C 345.391,666.953 345.156,667.031 344.922,667.031 C 344.609,667.188 344.297,667.266 344.063,667.422 C 343.75,667.656 343.438,667.969 343.125,668.203 C 342.734,668.594 342.422,668.984 342.109,669.375 L 342.109,675.234 C 342.5,675.469 342.891,675.547 343.359,675.625 C 343.75,675.703 344.141,675.781 344.531,675.703 C 345,675.781 345.469,675.703 345.938,675.469 C 346.328,675.391 346.719,675.156 347.031,674.766 C 347.344,674.453 347.578,673.984 347.813,673.359 C 347.969,672.813 348.047,672.031 348.125,671.172z"/>
      <path style="fill: #000000" d="M 363.906 671.172 C 363.828,672.109 363.75,672.969 363.516,673.75 C 363.203,674.531 362.813,675.234 362.344,675.781 C 361.875,676.328 361.25,676.719 360.547,677.031 C 359.844,677.344 359.063,677.5 358.203,677.5 C 357.266,677.5 356.484,677.422 355.859,677.109 C 355.156,676.953 354.609,676.563 354.141,675.938 C 353.672,675.469 353.281,674.766 353.047,673.984 C 352.734,673.203 352.578,672.344 352.656,671.328 C 352.578,670.469 352.734,669.609 353.047,668.828 C 353.281,668.047 353.672,667.422 354.141,666.797 C 354.609,666.328 355.156,665.859 355.938,665.547 C 356.563,665.234 357.422,665.078 358.438,665.078 C 359.219,665.078 360,665.234 360.703,665.469 C 361.328,665.781 361.875,666.172 362.422,666.641 C 362.813,667.188 363.203,667.813 363.516,668.594 C 363.75,669.375 363.828,670.234 363.906,671.172 L 363.906,671.172z"/>
      <path style="fill: #ffffff" d="M 361.797 671.25 C 361.719,670.625 361.641,670 361.563,669.375 C 361.328,668.906 361.094,668.438 360.859,667.969 C 360.469,667.656 360.078,667.344 359.688,667.109 C 359.219,666.953 358.75,666.875 358.281,666.797 C 357.578,666.875 357.031,666.953 356.641,667.188 C 356.172,667.5 355.859,667.891 355.547,668.203 C 355.234,668.672 355,669.141 354.922,669.609 C 354.766,670.234 354.688,670.781 354.766,671.25 C 354.688,672.031 354.766,672.656 355,673.203 C 355.156,673.828 355.391,674.297 355.703,674.609 C 355.938,675 356.328,675.313 356.797,675.469 C 357.188,675.703 357.656,675.781 358.281,675.703 C 358.828,675.781 359.375,675.625 359.844,675.391 C 360.234,675.156 360.625,674.844 360.938,674.375 C 361.25,673.984 361.406,673.516 361.563,672.969 C 361.641,672.5 361.719,671.953 361.797,671.25z"/>
      <path style="fill: #000000" d="M 376.563 677.266 L 374.688,677.266 L 374.609,675.313 C 374.219,675.781 373.828,676.172 373.594,676.406 C 373.203,676.719 372.891,676.875 372.656,677.031 C 372.266,677.188 371.953,677.266 371.641,677.344 C 371.25,677.422 370.938,677.5 370.625,677.5 C 369.375,677.5 368.438,677.188 367.813,676.406 C 367.188,675.781 366.875,674.688 366.875,673.125 L 366.875,665.234 L 368.984,665.234 L 368.984,672.969 C 368.984,674.844 369.688,675.781 371.094,675.703 C 371.328,675.781 371.563,675.703 371.797,675.625 C 372.031,675.547 372.266,675.469 372.578,675.234 C 372.813,675.078 373.125,674.766 373.438,674.453 C 373.75,674.141 374.063,673.75 374.453,673.203 L 374.453,665.234 L 376.563,665.234 L 376.563,677.266z"/>
      <path style="fill: #000000" d="M 380.391 665.234 L 382.266,665.234 L 382.344,667.188 C 382.656,666.797 382.969,666.484 383.359,666.172 C 383.672,665.938 384.063,665.703 384.375,665.547 C 384.688,665.391 385,665.313 385.313,665.156 C 385.625,665.156 385.938,665.078 386.328,665.078 C 387.5,665.078 388.438,665.469 389.141,666.172 C 389.688,666.953 390,668.047 390.078,669.453 L 390.078,677.266 L 387.969,677.266 L 387.969,669.609 C 387.891,668.75 387.734,668.047 387.422,667.578 C 387.109,667.188 386.563,666.953 385.938,666.875 C 385.625,666.953 385.391,667.031 385.156,667.031 C 384.844,667.188 384.609,667.266 384.375,667.422 C 384.063,667.578 383.75,667.813 383.516,668.125 C 383.125,668.438 382.813,668.828 382.5,669.297 L 382.5,677.266 L 380.391,677.266 L 380.391,665.234z"/>
      <path style="fill: #000000" d="M 393.281 671.484 C 393.203,670.547 393.359,669.609 393.672,668.828 C 393.906,668.047 394.297,667.422 394.844,666.797 C 395.313,666.328 395.938,665.859 396.719,665.547 C 397.422,665.313 398.203,665.234 399.141,665.156 C 399.453,665.234 399.844,665.234 400.234,665.234 C 400.547,665.313 400.938,665.391 401.328,665.391 L 401.328,660.391 L 403.438,660.391 L 403.438,677.266 L 401.563,677.266 L 401.484,675 C 400.859,675.938 400.234,676.563 399.609,676.875 C 398.828,677.344 398.125,677.5 397.422,677.5 C 396.719,677.5 396.094,677.422 395.625,677.109 C 395,676.875 394.609,676.406 394.297,675.859 C 393.906,675.391 393.594,674.766 393.516,673.984 C 393.281,673.281 393.203,672.5 393.281,671.484 L 393.281,671.484z"/>
      <path style="fill: #ffffff" d="M 395.391 671.406 C 395.313,672.891 395.547,673.984 396.016,674.688 C 396.406,675.391 397.031,675.781 397.813,675.703 C 398.281,675.781 398.828,675.547 399.453,675 C 400.078,674.609 400.703,673.906 401.328,672.891 L 401.328,667.344 C 401.016,667.266 400.625,667.188 400.234,667.031 C 399.766,667.031 399.375,666.953 398.984,666.875 C 397.813,666.953 396.875,667.344 396.328,667.969 C 395.625,668.75 395.313,669.844 395.391,671.406z"/>
      <path style="fill: #000000" d="M 416.797 673.984 C 416.719,674.453 416.641,674.844 416.563,675.156 C 416.406,675.469 416.25,675.781 416.016,676.016 C 415.703,676.328 415.391,676.563 415.156,676.719 C 414.766,676.953 414.453,677.109 414.063,677.188 C 413.672,677.266 413.281,677.266 412.891,677.422 C 412.5,677.422 412.109,677.5 411.797,677.5 C 410.938,677.5 410.156,677.422 409.531,677.344 C 408.75,677.266 408.125,677.188 407.578,677.031 L 407.578,675.078 C 408.203,675.313 408.906,675.469 409.609,675.547 C 410.313,675.703 411.016,675.781 411.719,675.703 C 412.656,675.781 413.359,675.625 413.906,675.313 C 414.375,675.078 414.609,674.688 414.688,674.141 C 414.609,673.984 414.609,673.828 414.531,673.594 C 414.453,673.516 414.297,673.359 414.141,673.125 C 413.906,673.047 413.594,672.891 413.203,672.656 C 412.734,672.5 412.188,672.266 411.484,672.031 C 410.938,671.953 410.391,671.797 410,671.484 C 409.453,671.328 409.063,671.094 408.75,670.781 C 408.359,670.547 408.125,670.156 407.969,669.766 C 407.813,669.453 407.734,669.063 407.734,668.438 C 407.734,668.203 407.813,667.813 407.969,667.422 C 408.125,667.031 408.359,666.641 408.75,666.25 C 409.063,665.938 409.531,665.703 410.234,665.391 C 410.859,665.234 411.719,665.078 412.656,665.078 C 413.125,665.078 413.594,665.156 414.219,665.156 C 414.688,665.313 415.313,665.391 416.016,665.391 L 416.016,667.266 C 415.313,667.188 414.688,667.031 414.141,666.953 C 413.516,666.875 413.047,666.875 412.656,666.797 C 412.109,666.875 411.641,666.875 411.328,666.953 C 410.938,667.031 410.625,667.188 410.469,667.266 C 410.156,667.422 410,667.578 410,667.734 C 409.844,667.969 409.844,668.125 409.844,668.359 C 409.844,668.594 409.844,668.828 409.922,668.906 C 410,669.141 410.156,669.297 410.391,669.453 C 410.625,669.688 410.938,669.844 411.406,669.922 C 411.719,670.156 412.266,670.313 412.969,670.469 C 413.672,670.703 414.297,670.938 414.766,671.094 C 415.234,671.328 415.625,671.563 415.938,671.875 C 416.25,672.188 416.406,672.5 416.563,672.813 C 416.641,673.203 416.719,673.594 416.797,673.984 L 416.797,673.984z"/>
      <path style="fill: #000000" d="M 429.766 676.172 L 428.516,677.422 L 420.469,670.781 L 428.516,664.063 L 429.766,665.391 L 423.281,670.703 L 429.766,676.172z"/>
      <path style="fill: #000000" d="M 444.297 677.266 L 433.984,677.266 L 433.984,675.391 L 438.047,671.406 C 438.672,670.781 439.219,670.234 439.688,669.688 C 440,669.297 440.313,668.906 440.625,668.438 C 440.781,668.125 440.938,667.734 441.094,667.266 C 441.094,666.953 441.172,666.563 441.25,666.094 C 441.172,665.781 441.094,665.391 441.094,665.078 C 440.938,664.766 440.781,664.453 440.547,664.141 C 440.313,663.906 440,663.75 439.688,663.516 C 439.297,663.438 438.906,663.359 438.516,663.281 C 437.734,663.359 437.188,663.516 436.719,663.75 C 436.172,664.063 435.625,664.375 435.234,664.844 L 434.063,663.516 C 434.609,662.969 435.313,662.422 436.094,662.031 C 436.797,661.641 437.734,661.484 438.828,661.406 C 439.453,661.484 440.078,661.563 440.703,661.719 C 441.25,661.953 441.719,662.266 442.188,662.656 C 442.578,663.047 442.891,663.516 443.125,664.063 C 443.281,664.688 443.359,665.313 443.438,666.016 C 443.359,666.641 443.281,667.188 443.203,667.656 C 442.969,668.203 442.734,668.75 442.5,669.219 C 442.109,669.766 441.719,670.313 441.25,670.781 C 440.703,671.406 440.156,671.953 439.531,672.5 L 436.719,675.313 L 444.297,675.313 L 444.297,677.266z"/>
      <path style="fill: #000000" d="M 448.281 665.391 L 449.531,664.063 L 457.578,670.781 L 449.531,677.422 L 448.281,676.172 L 454.766,670.781 L 448.281,665.391z"/>
      <path style="fill: #000000" d="M 469.922 682.188 L 469.063,682.188 C 467.5,682.188 466.328,681.797 465.625,681.094 C 464.844,680.313 464.453,679.219 464.531,677.813 L 464.531,673.672 C 464.453,673.359 464.453,673.047 464.375,672.656 C 464.219,672.422 464.063,672.109 463.906,671.875 C 463.672,671.719 463.359,671.563 463.047,671.406 C 462.656,671.328 462.188,671.328 461.641,671.25 L 461.172,671.25 L 461.172,669.531 L 461.641,669.531 C 462.188,669.531 462.656,669.531 463.125,669.453 C 463.438,669.375 463.75,669.219 463.984,668.984 C 464.141,668.828 464.297,668.594 464.375,668.281 C 464.453,668.047 464.453,667.656 464.531,667.188 L 464.531,664.297 C 464.453,663.75 464.531,663.203 464.766,662.578 C 464.844,662.109 465.156,661.641 465.547,661.172 C 465.859,660.859 466.328,660.547 466.953,660.313 C 467.5,660.156 468.203,660.078 469.063,660 L 469.922,660 L 469.922,661.641 L 469.219,661.641 C 467.344,661.719 466.484,662.578 466.484,664.297 L 466.484,667.109 C 466.484,669.063 465.625,670.156 463.906,670.391 C 465.625,670.625 466.484,671.719 466.484,673.672 L 466.484,677.734 C 466.484,679.531 467.344,680.391 469.219,680.469 L 469.922,680.469 L 469.922,682.188z"/>
      <path style="fill: #000000" d="M 484.297 672.266 C 484.219,673.125 484.063,673.828 483.75,674.375 C 483.359,675.078 482.891,675.625 482.422,676.016 C 481.797,676.563 481.094,676.953 480.313,677.109 C 479.453,677.422 478.594,677.5 477.734,677.5 C 477.422,677.5 477.188,677.422 477.031,677.422 C 476.719,677.344 476.484,677.344 476.25,677.422 C 475.938,677.344 475.703,677.344 475.469,677.344 C 475.156,677.266 474.922,677.266 474.766,677.266 L 474.766,675.391 C 475.156,675.547 475.625,675.625 476.25,675.625 C 476.797,675.703 477.344,675.781 477.969,675.703 C 478.516,675.781 479.063,675.703 479.609,675.469 C 480.078,675.391 480.547,675.156 480.938,674.844 C 481.25,674.609 481.563,674.297 481.797,673.828 C 481.953,673.516 482.031,673.047 482.109,672.422 C 482.031,671.484 481.641,670.781 481.016,670.313 C 480.234,669.922 479.297,669.688 478.047,669.609 L 475.078,669.609 L 475.078,661.641 L 483.438,661.641 L 483.438,663.438 L 477.031,663.438 L 477.031,667.813 L 478.359,667.813 C 479.063,667.891 479.766,667.969 480.547,668.047 C 481.172,668.281 481.797,668.516 482.422,668.828 C 482.891,669.141 483.359,669.609 483.75,670.156 C 484.063,670.781 484.219,671.484 484.297,672.266 L 484.297,672.266z"/>
      <path style="fill: #000000" d="M 488.906 679.688 C 489.297,679.688 489.688,679.688 490.078,679.609 C 490.469,679.453 490.781,679.297 491.094,679.219 C 491.328,678.984 491.563,678.75 491.797,678.594 C 491.953,678.281 492.031,678.047 492.109,677.734 C 492.031,677.422 491.953,677.188 491.875,676.875 C 491.719,676.719 491.641,676.484 491.484,676.328 C 491.328,676.172 491.172,676.016 491.094,675.781 C 490.938,675.625 490.859,675.313 490.938,674.922 C 490.859,674.766 490.938,674.609 491.016,674.453 C 491.094,674.297 491.172,674.141 491.328,673.906 C 491.406,673.828 491.563,673.75 491.875,673.594 C 492.031,673.594 492.266,673.516 492.578,673.438 C 492.734,673.516 493.047,673.594 493.359,673.594 C 493.594,673.75 493.828,673.906 494.063,674.141 C 494.219,674.375 494.375,674.688 494.531,675 C 494.609,675.469 494.609,675.859 494.688,676.25 C 494.609,676.953 494.531,677.578 494.297,678.203 C 494.063,678.828 493.672,679.375 493.203,679.844 C 492.656,680.313 492.031,680.625 491.406,680.938 C 490.625,681.094 489.844,681.25 488.906,681.328 L 488.906,679.688z"/>
      <path style="fill: #000000" d="M 512.344 673.828 L 509.688,673.828 L 509.688,677.266 L 507.578,677.266 L 507.578,673.828 L 500.078,673.828 L 500.078,671.953 L 506.719,661.641 L 509.688,661.641 L 509.688,671.953 L 512.344,671.953 L 512.344,673.828z"/>
      <path style="fill: #ffffff" d="M 507.578 663.672 L 502.109,671.953 L 507.578,671.953z"/>
      <path style="fill: #000000" d="M 515.781 660 L 516.641,660 C 518.125,660.078 519.297,660.391 520.078,661.094 C 520.859,661.797 521.25,662.891 521.25,664.297 L 521.25,667.109 C 521.25,667.5 521.25,667.813 521.328,668.125 C 521.406,668.438 521.563,668.75 521.797,668.906 C 521.953,669.219 522.266,669.375 522.656,669.375 C 522.969,669.531 523.438,669.531 524.063,669.531 L 524.609,669.531 L 524.609,671.25 L 524.063,671.25 C 523.438,671.328 522.969,671.328 522.656,671.406 C 522.266,671.484 521.953,671.641 521.797,671.797 C 521.563,672.031 521.406,672.266 521.328,672.578 C 521.25,672.891 521.25,673.281 521.25,673.594 L 521.25,677.813 C 521.25,678.438 521.094,679.063 520.938,679.609 C 520.703,680.078 520.469,680.469 520.156,680.938 C 519.766,681.25 519.297,681.563 518.75,681.875 C 518.125,682.031 517.422,682.188 516.641,682.188 L 515.781,682.188 L 515.781,680.469 L 516.484,680.469 C 518.281,680.391 519.219,679.531 519.297,677.813 L 519.297,673.672 C 519.219,671.797 520.078,670.703 521.797,670.391 C 520,670.313 519.141,669.219 519.219,667.109 L 519.219,664.375 C 519.141,662.578 518.203,661.719 516.484,661.641 L 515.781,661.641 L 515.781,660z"/>
      <path style="fill: none; fill-opacity:0; stroke-width: 0.02; stroke-linecap: round; stroke: #000000" d="M 350.313 671.016 C 350.313,672.109 350.156,672.969 349.844,673.75 C 349.531,674.531 349.141,675.234 348.672,675.781 C 348.203,676.328 347.578,676.719 346.875,677.031 C 346.094,677.266 345.234,677.344 344.375,677.422 C 343.594,677.344 342.891,677.344 342.188,677.266 C 341.406,677.109 340.703,676.875 340,676.563 L 340,660.391 L 342.109,660.391 L 342.109,665 L 342.031,667.266 C 342.5,666.484 343.125,665.859 343.906,665.547 C 344.531,665.234 345.313,665.078 346.094,665.078 C 346.797,665.078 347.344,665.234 347.891,665.547 C 348.359,665.859 348.828,666.25 349.219,666.719 C 349.531,667.266 349.766,667.891 350,668.594 C 350.156,669.375 350.313,670.234 350.313,671.016 L 350.313,671.016"/>
      <path style="fill: none; fill-opacity:0; stroke-width: 0.02; stroke-linecap: round; stroke: #000000" d="M 348.125 671.172 C 348.047,670.547 348.047,670 347.969,669.453 C 347.891,668.906 347.734,668.438 347.578,668.047 C 347.344,667.734 347.109,667.422 346.797,667.188 C 346.484,667.031 346.094,666.953 345.703,666.875 C 345.391,666.953 345.156,667.031 344.922,667.031 C 344.609,667.188 344.297,667.266 344.063,667.422 C 343.75,667.656 343.438,667.969 343.125,668.203 C 342.734,668.594 342.422,668.984 342.109,669.375 L 342.109,675.234 C 342.5,675.469 342.891,675.547 343.359,675.625 C 343.75,675.703 344.141,675.781 344.531,675.703 C 345,675.781 345.469,675.703 345.938,675.469 C 346.328,675.391 346.719,675.156 347.031,674.766 C 347.344,674.453 347.578,673.984 347.813,673.359 C 347.969,672.813 348.047,672.031 348.125,671.172 L 348.125,671.172"/>
      <path style="fill: none; fill-opacity:0; stroke-width: 0.02; stroke-linecap: round; stroke: #000000" d="M 363.906 671.172 C 363.828,672.109 363.75,672.969 363.516,673.75 C 363.203,674.531 362.813,675.234 362.344,675.781 C 361.875,676.328 361.25,676.719 360.547,677.031 C 359.844,677.344 359.063,677.5 358.203,677.5 C 357.266,677.5 356.484,677.422 355.859,677.109 C 355.156,676.953 354.609,676.563 354.141,675.938 C 353.672,675.469 353.281,674.766 353.047,673.984 C 352.734,673.203 352.578,672.344 352.656,671.328 C 352.578,670.469 352.734,669.609 353.047,668.828 C 353.281,668.047 353.672,667.422 354.141,666.797 C 354.609,666.328 355.156,665.859 355.938,665.547 C 356.563,665.234 357.422,665.078 358.438,665.078 C 359.219,665.078 360,665.234 360.703,665.469 C 361.328,665.781 361.875,666.172 362.422,666.641 C 362.813,667.188 363.203,667.813 363.516,668.594 C 363.75,669.375 363.828,670.234 363.906,671.172 L 363.906,671.172"/>
      <path style="fill: none; fill-opacity:0; stroke-width: 0.02; stroke-linecap: round; stroke: #000000" d="M 361.797 671.25 C 361.719,670.625 361.641,670 361.563,669.375 C 361.328,668.906 361.094,668.438 360.859,667.969 C 360.469,667.656 360.078,667.344 359.688,667.109 C 359.219,666.953 358.75,666.875 358.281,666.797 C 357.578,666.875 357.031,666.953 356.641,667.188 C 356.172,667.5 355.859,667.891 355.547,668.203 C 355.234,668.672 355,669.141 354.922,669.609 C 354.766,670.234 354.688,670.781 354.766,671.25 C 354.688,672.031 354.766,672.656 355,673.203 C 355.156,673.828 355.391,674.297 355.703,674.609 C 355.938,675 356.328,675.313 356.797,675.469 C 357.188,675.703 357.656,675.781 358.281,675.703 C 358.828,675.781 359.375,675.625 359.844,675.391 C 360.234,675.156 360.625,674.844 360.938,674.375 C 361.25,673.984 361.406,673.516 361.563,672.969 C 361.641,672.5 361.719,671.953 361.797,671.25 L 361.797,671.25"/>
      <path style="fill: none; fill-opacity:0; stroke-width: 0.02; stroke-linecap: round; stroke: #000000" d="M 376.563 677.266 L 374.688,677.266 L 374.609,675.313 C 374.219,675.781 373.828,676.172 373.594,676.406 C 373.203,676.719 372.891,676.875 372.656,677.031 C 372.266,677.188 371.953,677.266 371.641,677.344 C 371.25,677.422 370.938,677.5 370.625,677.5 C 369.375,677.5 368.438,677.188 367.813,676.406 C 367.188,675.781 366.875,674.688 366.875,673.125 L 366.875,665.234 L 368.984,665.234 L 368.984,672.969 C 368.984,674.844 369.688,675.781 371.094,675.703 C 371.328,675.781 371.563,675.703 371.797,675.625 C 372.031,675.547 372.266,675.469 372.578,675.234 C 372.813,675.078 373.125,674.766 373.438,674.453 C 373.75,674.141 374.063,673.75 374.453,673.203 L 374.453,665.234 L 376.563,665.234 L 376.563,677.266"/>
      <path style="fill: none; fill-opacity:0; stroke-width: 0.02; stroke-linecap: round; stroke: #000000" d="M 380.391 665.234 L 382.266,665.234 L 382.344,667.188 C 382.656,666.797 382.969,666.484 383.359,666.172 C 383.672,665.938 384.063,665.703 384.375,665.547 C 384.688,665.391 385,665.313 385.313,665.156 C 385.625,665.156 385.938,665.078 386.328,665.078 C 387.5,665.078 388.438,665.469 389.141,666.172 C 389.688,666.953 390,668.047 390.078,669.453 L 390.078,677.266 L 387.969,677.266 L 387.969,669.609 C 387.891,668.75 387.734,668.047 387.422,667.578 C 387.109,667.188 386.563,666.953 385.938,666.875 C 385.625,666.953 385.391,667.031 385.156,667.031 C 384.844,667.188 384.609,667.266 384.375,667.422 C 384.063,667.578 383.75,667.813 383.516,668.125 C 383.125,668.438 382.813,668.828 382.5,669.297 L 382.5,677.266 L 380.391,677.266 L 380.391,665.234"/>
      <path style="fill: none; fill-opacity:0; stroke-width: 0.02; stroke-linecap: round; stroke: #000000" d="M 393.281 671.484 C 393.203,670.547 393.359,669.609 393.672,668.828 C 393.906,668.047 394.297,667.422 394.844,666.797 C 395.313,666.328 395.938,665.859 396.719,665.547 C 397.422,665.313 398.203,665.234 399.141,665.156 C 399.453,665.234 399.844,665.234 400.234,665.234 C 400.547,665.313 400.938,665.391 401.328,665.391 L 401.328,660.391 L 403.438,660.391 L 403.438,677.266 L 401.563,677.266 L 401.484,675 C 400.859,675.938 400.234,676.563 399.609,676.875 C 398.828,677.344 398.125,677.5 397.422,677.5 C 396.719,677.5 396.094,677.422 395.625,677.109 C 395,676.875 394.609,676.406 394.297,675.859 C 393.906,675.391 393.594,674.766 393.516,673.984 C 393.281,673.281 393.203,672.5 393.281,671.484 L 393.281,671.484"/>
      <path style="fill: none; fill-opacity:0; stroke-width: 0.02; stroke-linecap: round; stroke: #000000" d="M 395.391 671.406 C 395.313,672.891 395.547,673.984 396.016,674.688 C 396.406,675.391 397.031,675.781 397.813,675.703 C 398.281,675.781 398.828,675.547 399.453,675 C 400.078,674.609 400.703,673.906 401.328,672.891 L 401.328,667.344 C 401.016,667.266 400.625,667.188 400.234,667.031 C 399.766,667.031 399.375,666.953 398.984,666.875 C 397.813,666.953 396.875,667.344 396.328,667.969 C 395.625,668.75 395.313,669.844 395.391,671.406 L 395.391,671.406"/>
      <path style="fill: none; fill-opacity:0; stroke-width: 0.02; stroke-linecap: round; stroke: #000000" d="M 416.797 673.984 C 416.719,674.453 416.641,674.844 416.563,675.156 C 416.406,675.469 416.25,675.781 416.016,676.016 C 415.703,676.328 415.391,676.563 415.156,676.719 C 414.766,676.953 414.453,677.109 414.063,677.188 C 413.672,677.266 413.281,677.266 412.891,677.422 C 412.5,677.422 412.109,677.5 411.797,677.5 C 410.938,677.5 410.156,677.422 409.531,677.344 C 408.75,677.266 408.125,677.188 407.578,677.031 L 407.578,675.078 C 408.203,675.313 408.906,675.469 409.609,675.547 C 410.313,675.703 411.016,675.781 411.719,675.703 C 412.656,675.781 413.359,675.625 413.906,675.313 C 414.375,675.078 414.609,674.688 414.688,674.141 C 414.609,673.984 414.609,673.828 414.531,673.594 C 414.453,673.516 414.297,673.359 414.141,673.125 C 413.906,673.047 413.594,672.891 413.203,672.656 C 412.734,672.5 412.188,672.266 411.484,672.031 C 410.938,671.953 410.391,671.797 410,671.484 C 409.453,671.328 409.063,671.094 408.75,670.781 C 408.359,670.547 408.125,670.156 407.969,669.766 C 407.813,669.453 407.734,669.063 407.734,668.438 C 407.734,668.203 407.813,667.813 407.969,667.422 C 408.125,667.031 408.359,666.641 408.75,666.25 C 409.063,665.938 409.531,665.703 410.234,665.391 C 410.859,665.234 411.719,665.078 412.656,665.078 C 413.125,665.078 413.594,665.156 414.219,665.156 C 414.688,665.313 415.313,665.391 416.016,665.391 L 416.016,667.266 C 415.313,667.188 414.688,667.031 414.141,666.953 C 413.516,666.875 413.047,666.875 412.656,666.797 C 412.109,666.875 411.641,666.875 411.328,666.953 C 410.938,667.031 410.625,667.188 410.469,667.266 C 410.156,667.422 410,667.578 410,667.734 C 409.844,667.969 409.844,668.125 409.844,668.359 C 409.844,668.594 409.844,668.828 409.922,668.906 C 410,669.141 410.156,669.297 410.391,669.453 C 410.625,669.688 410.938,669.844 411.406,669.922 C 411.719,670.156 412.266,670.313 412.969,670.469 C 413.672,670.703 414.297,670.938 414.766,671.094 C 415.234,671.328 415.625,671.563 415.938,671.875 C 416.25,672.188 416.406,672.5 416.563,672.813 C 416.641,673.203 416.719,673.594 416.797,673.984 L 416.797,673.984"/>
      <path style="fill: none; fill-opacity:0; stroke-width: 0.02; stroke-linecap: round; stroke: #000000" d="M 429.766 676.172 L 428.516,677.422 L 420.469,670.781 L 428.516,664.063 L 429.766,665.391 L 423.281,670.703 L 429.766,676.172"/>
      <path style="fill: none; fill-opacity:0; stroke-width: 0.02; stroke-linecap: round; stroke: #000000" d="M 444.297 677.266 L 433.984,677.266 L 433.984,675.391 L 438.047,671.406 C 438.672,670.781 439.219,670.234 439.688,669.688 C 440,669.297 440.313,668.906 440.625,668.438 C 440.781,668.125 440.938,667.734 441.094,667.266 C 441.094,666.953 441.172,666.563 441.25,666.094 C 441.172,665.781 441.094,665.391 441.094,665.078 C 440.938,664.766 440.781,664.453 440.547,664.141 C 440.313,663.906 440,663.75 439.688,663.516 C 439.297,663.438 438.906,663.359 438.516,663.281 C 437.734,663.359 437.188,663.516 436.719,663.75 C 436.172,664.063 435.625,664.375 435.234,664.844 L 434.063,663.516 C 434.609,662.969 435.313,662.422 436.094,662.031 C 436.797,661.641 437.734,661.484 438.828,661.406 C 439.453,661.484 440.078,661.563 440.703,661.719 C 441.25,661.953 441.719,662.266 442.188,662.656 C 442.578,663.047 442.891,663.516 443.125,664.063 C 443.281,664.688 443.359,665.313 443.438,666.016 C 443.359,666.641 443.281,667.188 443.203,667.656 C 442.969,668.203 442.734,668.75 442.5,669.219 C 442.109,669.766 441.719,670.313 441.25,670.781 C 440.703,671.406 440.156,671.953 439.531,672.5 L 436.719,675.313 L 444.297,675.313 L 444.297,677.266"/>
      <path style="fill: none; fill-opacity:0; stroke-width: 0.02; stroke-linecap: round; stroke: #000000" d="M 448.281 665.391 L 449.531,664.063 L 457.578,670.781 L 449.531,677.422 L 448.281,676.172 L 454.766,670.781 L 448.281,665.391"/>
      <path style="fill: none; fill-opacity:0; stroke-width: 0.02; stroke-linecap: round; stroke: #000000" d="M 469.922 682.188 L 469.063,682.188 C 467.5,682.188 466.328,681.797 465.625,681.094 C 464.844,680.313 464.453,679.219 464.531,677.813 L 464.531,673.672 C 464.453,673.359 464.453,673.047 464.375,672.656 C 464.219,672.422 464.063,672.109 463.906,671.875 C 463.672,671.719 463.359,671.563 463.047,671.406 C 462.656,671.328 462.188,671.328 461.641,671.25 L 461.172,671.25 L 461.172,669.531 L 461.641,669.531 C 462.188,669.531 462.656,669.531 463.125,669.453 C 463.438,669.375 463.75,669.219 463.984,668.984 C 464.141,668.828 464.297,668.594 464.375,668.281 C 464.453,668.047 464.453,667.656 464.531,667.188 L 464.531,664.297 C 464.453,663.75 464.531,663.203 464.766,662.578 C 464.844,662.109 465.156,661.641 465.547,661.172 C 465.859,660.859 466.328,660.547 466.953,660.313 C 467.5,660.156 468.203,660.078 469.063,660 L 469.922,660 L 469.922,661.641 L 469.219,661.641 C 467.344,661.719 466.484,662.578 466.484,664.297 L 466.484,667.109 C 466.484,669.063 465.625,670.156 463.906,670.391 C 465.625,670.625 466.484,671.719 466.484,673.672 L 466.484,677.734 C 466.484,679.531 467.344,680.391 469.219,680.469 L 469.922,680.469 L 469.922,682.188"/>
      <path style="fill: none; fill-opacity:0; stroke-width: 0.02; stroke-linecap: round; stroke: #000000" d="M 484.297 672.266 C 484.219,673.125 484.063,673.828 483.75,674.375 C 483.359,675.078 482.891,675.625 482.422,676.016 C 481.797,676.563 481.094,676.953 480.313,677.109 C 479.453,677.422 478.594,677.5 477.734,677.5 C 477.422,677.5 477.188,677.422 477.031,677.422 C 476.719,677.344 476.484,677.344 476.25,677.422 C 475.938,677.344 475.703,677.344 475.469,677.344 C 475.156,677.266 474.922,677.266 474.766,677.266 L 474.766,675.391 C 475.156,675.547 475.625,675.625 476.25,675.625 C 476.797,675.703 477.344,675.781 477.969,675.703 C 478.516,675.781 479.063,675.703 479.609,675.469 C 480.078,675.391 480.547,675.156 480.938,674.844 C 481.25,674.609 481.563,674.297 481.797,673.828 C 481.953,673.516 482.031,673.047 482.109,672.422 C 482.031,671.484 481.641,670.781 481.016,670.313 C 480.234,669.922 479.297,669.688 478.047,669.609 L 475.078,669.609 L 475.078,661.641 L 483.438,661.641 L 483.438,663.438 L 477.031,663.438 L 477.031,667.813 L 478.359,667.813 C 479.063,667.891 479.766,667.969 480.547,668.047 C 481.172,668.281 481.797,668.516 482.422,668.828 C 482.891,669.141 483.359,669.609 483.75,670.156 C 484.063,670.781 484.219,671.484 484.297,672.266 L 484.297,672.266"/>
      <path style="fill: none; fill-opacity:0; stroke-width: 0.02; stroke-linecap: round; stroke: #000000" d="M 488.906 679.688 C 489.297,679.688 489.688,679.688 490.078,679.609 C 490.469,679.453 490.781,679.297 491.094,679.219 C 491.328,678.984 491.563,678.75 491.797,678.594 C 491.953,678.281 492.031,678.047 492.109,677.734 C 492.031,677.422 491.953,677.188 491.875,676.875 C 491.719,676.719 491.641,676.484 491.484,676.328 C 491.328,676.172 491.172,676.016 491.094,675.781 C 490.938,675.625 490.859,675.313 490.938,674.922 C 490.859,674.766 490.938,674.609 491.016,674.453 C 491.094,674.297 491.172,674.141 491.328,673.906 C 491.406,673.828 491.563,673.75 491.875,673.594 C 492.031,673.594 492.266,673.516 492.578,673.438 C 492.734,673.516 493.047,673.594 493.359,673.594 C 493.594,673.75 493.828,673.906 494.063,674.141 C 494.219,674.375 494.375,674.688 494.531,675 C 494.609,675.469 494.609,675.859 494.688,676.25 C 494.609,676.953 494.531,677.578 494.297,678.203 C 494.063,678.828 493.672,679.375 493.203,679.844 C 492.656,680.313 492.031,680.625 491.406,680.938 C 490.625,681.094 489.844,681.25 488.906,681.328 L 488.906,679.688"/>
      <path style="fill: none; fill-opacity:0; stroke-width: 0.02; stroke-linecap: round; stroke: #000000" d="M 512.344 673.828 L 509.688,673.828 L 509.688,677.266 L 507.578,677.266 L 507.578,673.828 L 500.078,673.828 L 500.078,671.953 L 506.719,661.641 L 509.688,661.641 L 509.688,671.953 L 512.344,671.953 L 512.344,673.828"/>
      <path style="fill: none; fill-opacity:0; stroke-width: 0.02; stroke-linecap: round; stroke: #000000" d="M 507.578 663.672 L 502.109,671.953 L 507.578,671.953 L 507.578,663.672"/>
      <path style="fill: none; fill-opacity:0; stroke-width: 0.02; stroke-linecap: round; stroke: #000000" d="M 515.781 660 L 516.641,660 C 518.125,660.078 519.297,660.391 520.078,661.094 C 520.859,661.797 521.25,662.891 521.25,664.297 L 521.25,667.109 C 521.25,667.5 521.25,667.813 521.328,668.125 C 521.406,668.438 521.563,668.75 521.797,668.906 C 521.953,669.219 522.266,669.375 522.656,669.375 C 522.969,669.531 523.438,669.531 524.063,669.531 L 524.609,669.531 L 524.609,671.25 L 524.063,671.25 C 523.438,671.328 522.969,671.328 522.656,671.406 C 522.266,671.484 521.953,671.641 521.797,671.797 C 521.563,672.031 521.406,672.266 521.328,672.578 C 521.25,672.891 521.25,673.281 521.25,673.594 L 521.25,677.813 C 521.25,678.438 521.094,679.063 520.938,679.609 C 520.703,680.078 520.469,680.469 520.156,680.938 C 519.766,681.25 519.297,681.563 518.75,681.875 C 518.125,682.031 517.422,682.188 516.641,682.188 L 515.781,682.188 L 515.781,680.469 L 516.484,680.469 C 518.281,680.391 519.219,679.531 519.297,677.813 L 519.297,673.672 C 519.219,671.797 520.078,670.703 521.797,670.391 C 520,670.313 519.141,669.219 519.219,667.109 L 519.219,664.375 C 519.141,662.578 518.203,661.719 516.484,661.641 L 515.781,661.641 L 515.781,660"/>
    </g>
    <g>
      <line style="fill: none; fill-opacity:0; stroke-width: 6; stroke: #ff9d00" x1="0" y1="200" x2="286.521" y2="295.507"/>
      <polygon style="fill: #ff9d00" points="293.636,297.879 282.568,299.46 286.521,295.507 285.73,289.973 "/>
      <polygon style="fill: none; fill-opacity:0; stroke-width: 6; stroke: #ff9d00" points="293.636,297.879 282.568,299.46 286.521,295.507 285.73,289.973 "/>
    </g>
    <g>
      <ellipse style="fill: #dae9ef" cx="400.039" cy="700.039" rx="12.0391" ry="12.0391"/>
      <ellipse style="fill: none; fill-opacity:0; stroke-width: 2; stroke: #000000" cx="400.039" cy="700.039" rx="12.0391" ry="12.0391"/>
      <ellipse style="fill: none; fill-opacity:0; stroke-width: 2; stroke: #000000" cx="400.039" cy="700.039" rx="12.0391" ry="12.0391"/>
    </g>
    <g>
      <path style="fill: #000000" d="M 323.984 326.953 L 320.391,326.953 L 320.391,325.234 L 326.094,325.234 L 326.094,335.547 L 329.609,335.547 L 329.609,337.266 L 320,337.266 L 320,335.547 L 323.984,335.547 L 323.984,326.953z"/>
      <path style="fill: #000000" d="M 324.688 320.234 C 324.844,320.313 325.078,320.313 325.313,320.391 C 325.469,320.469 325.625,320.625 325.859,320.703 C 325.938,320.938 326.094,321.094 326.172,321.25 C 326.25,321.484 326.25,321.719 326.328,321.875 C 326.25,322.188 326.25,322.344 326.172,322.5 C 326.094,322.734 325.938,322.969 325.859,323.047 C 325.625,323.281 325.469,323.359 325.313,323.438 C 325.078,323.516 324.844,323.594 324.688,323.516 C 324.375,323.594 324.219,323.516 324.063,323.438 C 323.828,323.359 323.594,323.281 323.516,323.047 C 323.281,322.969 323.203,322.734 323.125,322.5 C 323.047,322.344 322.969,322.188 323.047,321.875 C 322.969,321.719 323.047,321.484 323.125,321.25 C 323.203,321.094 323.281,320.938 323.516,320.703 C 323.594,320.625 323.828,320.469 324.063,320.391 C 324.219,320.313 324.375,320.313 324.688,320.234 L 324.688,320.234z"/>
      <path style="fill: #000000" d="M 333.281 325.234 L 335.156,325.234 L 335.234,327.188 C 335.547,326.797 335.859,326.484 336.25,326.172 C 336.563,325.938 336.953,325.703 337.266,325.547 C 337.578,325.391 337.891,325.313 338.203,325.156 C 338.516,325.156 338.828,325.078 339.219,325.078 C 340.391,325.078 341.328,325.469 342.031,326.172 C 342.578,326.953 342.891,328.047 342.969,329.453 L 342.969,337.266 L 340.859,337.266 L 340.859,329.609 C 340.781,328.75 340.625,328.047 340.313,327.578 C 340,327.188 339.453,326.953 338.828,326.875 C 338.516,326.953 338.281,327.031 338.047,327.031 C 337.734,327.188 337.5,327.266 337.266,327.422 C 336.953,327.578 336.641,327.813 336.406,328.125 C 336.016,328.438 335.703,328.828 335.391,329.297 L 335.391,337.266 L 333.281,337.266 L 333.281,325.234z"/>
      <path style="fill: #000000" d="M 346.172 331.484 C 346.094,330.547 346.25,329.609 346.563,328.828 C 346.797,328.047 347.188,327.422 347.734,326.797 C 348.203,326.328 348.828,325.859 349.609,325.547 C 350.313,325.313 351.094,325.234 352.031,325.156 C 352.344,325.234 352.734,325.234 353.125,325.234 C 353.438,325.313 353.828,325.391 354.219,325.391 L 354.219,320.391 L 356.328,320.391 L 356.328,337.266 L 354.453,337.266 L 354.375,335 C 353.75,335.938 353.125,336.563 352.5,336.875 C 351.719,337.344 351.016,337.5 350.313,337.5 C 349.609,337.5 348.984,337.422 348.516,337.109 C 347.891,336.875 347.5,336.406 347.188,335.859 C 346.797,335.391 346.484,334.766 346.406,333.984 C 346.172,333.281 346.094,332.5 346.172,331.484 L 346.172,331.484z"/>
      <path style="fill: #ffffff" d="M 348.281 331.406 C 348.203,332.891 348.438,333.984 348.906,334.688 C 349.297,335.391 349.922,335.781 350.703,335.703 C 351.172,335.781 351.719,335.547 352.344,335 C 352.969,334.609 353.594,333.906 354.219,332.891 L 354.219,327.344 C 353.906,327.266 353.516,327.188 353.125,327.031 C 352.656,327.031 352.266,326.953 351.875,326.875 C 350.703,326.953 349.766,327.344 349.219,327.969 C 348.516,328.75 348.203,329.844 348.281,331.406z"/>
      <path style="fill: #000000" d="M 370.391 330.625 C 370.313,331.016 370.313,331.25 370.391,331.406 C 370.313,331.563 370.313,331.797 370.391,331.953 L 361.953,331.953 C 361.875,333.203 362.188,334.141 362.969,334.766 C 363.594,335.547 364.609,335.859 365.938,335.781 C 366.25,335.859 366.563,335.859 366.953,335.781 C 367.266,335.781 367.656,335.703 367.969,335.625 C 368.281,335.625 368.594,335.625 368.906,335.469 C 369.219,335.469 369.453,335.391 369.766,335.234 L 369.766,336.953 C 369.141,337.188 368.516,337.266 367.813,337.344 C 367.109,337.422 366.406,337.5 365.625,337.5 C 364.531,337.5 363.594,337.422 362.969,337.109 C 362.188,336.875 361.641,336.406 361.172,335.859 C 360.703,335.391 360.313,334.766 360.078,333.906 C 359.844,333.203 359.766,332.344 359.766,331.328 C 359.766,330.469 359.844,329.688 360.078,328.906 C 360.313,328.203 360.703,327.5 361.172,326.953 C 361.641,326.406 362.188,326.016 362.891,325.625 C 363.516,325.313 364.297,325.078 365.234,325.078 C 366.016,325.078 366.719,325.234 367.422,325.469 C 367.969,325.781 368.516,326.172 368.984,326.563 C 369.375,327.109 369.688,327.656 370,328.359 C 370.156,329.063 370.313,329.844 370.391,330.625 L 370.391,330.625z"/>
      <path style="fill: #ffffff" d="M 368.203 330.313 C 368.203,329.844 368.125,329.375 368.047,328.906 C 367.891,328.516 367.734,328.125 367.5,327.734 C 367.188,327.5 366.797,327.266 366.484,327.031 C 366.016,326.875 365.547,326.719 365.078,326.719 C 364.609,326.719 364.219,326.875 363.828,327.031 C 363.438,327.266 363.125,327.5 362.891,327.734 C 362.578,328.125 362.344,328.516 362.188,328.906 C 361.953,329.375 361.875,329.844 361.953,330.313z"/>
      <path style="fill: #000000" d="M 384.531 337.266 L 381.797,337.266 L 378.516,332.656 L 375.313,337.266 L 372.656,337.266 L 377.266,331.25 L 372.813,325.234 L 375.547,325.234 L 378.672,329.844 L 381.797,325.234 L 384.297,325.234 L 379.844,331.328 L 384.531,337.266z"/>
      <path style="fill: #000000" d="M 396.172 336.172 L 394.922,337.422 L 386.875,330.781 L 394.922,324.063 L 396.172,325.391 L 389.688,330.703 L 396.172,336.172z"/>
      <path style="fill: #000000" d="M 410.703 337.266 L 400.391,337.266 L 400.391,335.391 L 404.453,331.406 C 405.078,330.781 405.625,330.234 406.094,329.688 C 406.406,329.297 406.719,328.906 407.031,328.438 C 407.188,328.125 407.344,327.734 407.5,327.266 C 407.5,326.953 407.578,326.563 407.656,326.094 C 407.578,325.781 407.5,325.391 407.5,325.078 C 407.344,324.766 407.188,324.453 406.953,324.141 C 406.719,323.906 406.406,323.75 406.094,323.516 C 405.703,323.438 405.313,323.359 404.922,323.281 C 404.141,323.359 403.594,323.516 403.125,323.75 C 402.578,324.063 402.031,324.375 401.641,324.844 L 400.469,323.516 C 401.016,322.969 401.719,322.422 402.5,322.031 C 403.203,321.641 404.141,321.484 405.234,321.406 C 405.859,321.484 406.484,321.563 407.109,321.719 C 407.656,321.953 408.125,322.266 408.594,322.656 C 408.984,323.047 409.297,323.516 409.531,324.063 C 409.688,324.688 409.766,325.313 409.844,326.016 C 409.766,326.641 409.688,327.188 409.609,327.656 C 409.375,328.203 409.141,328.75 408.906,329.219 C 408.516,329.766 408.125,330.313 407.656,330.781 C 407.109,331.406 406.563,331.953 405.938,332.5 L 403.125,335.313 L 410.703,335.313 L 410.703,337.266z"/>
      <path style="fill: #000000" d="M 414.609 325.391 L 415.859,324.063 L 423.906,330.781 L 415.859,337.422 L 414.609,336.172 L 421.094,330.781 L 414.609,325.391z"/>
      <path style="fill: #000000" d="M 436.328 342.188 L 435.469,342.188 C 433.906,342.188 432.734,341.797 432.031,341.094 C 431.25,340.313 430.859,339.219 430.938,337.813 L 430.938,333.672 C 430.859,333.359 430.859,333.047 430.781,332.656 C 430.625,332.422 430.469,332.109 430.313,331.875 C 430.078,331.719 429.766,331.563 429.453,331.406 C 429.063,331.328 428.594,331.328 428.047,331.25 L 427.578,331.25 L 427.578,329.531 L 428.047,329.531 C 428.594,329.531 429.063,329.531 429.531,329.453 C 429.844,329.375 430.156,329.219 430.391,328.984 C 430.547,328.828 430.703,328.594 430.781,328.281 C 430.859,328.047 430.859,327.656 430.938,327.188 L 430.938,324.297 C 430.859,323.75 430.938,323.203 431.172,322.578 C 431.25,322.109 431.563,321.641 431.953,321.172 C 432.266,320.859 432.734,320.547 433.359,320.313 C 433.906,320.156 434.609,320.078 435.469,320 L 436.328,320 L 436.328,321.641 L 435.625,321.641 C 433.75,321.719 432.891,322.578 432.891,324.297 L 432.891,327.109 C 432.891,329.063 432.031,330.156 430.313,330.391 C 432.031,330.625 432.891,331.719 432.891,333.672 L 432.891,337.734 C 432.891,339.531 433.75,340.391 435.625,340.469 L 436.328,340.469 L 436.328,342.188z"/>
      <path style="fill: #000000" d="M 450.938 337.266 L 441.172,337.266 L 441.172,335.313 L 445.156,335.313 L 445.156,323.906 L 441.406,325.938 L 440.703,324.219 L 445.625,321.563 L 447.5,321.563 L 447.5,335.313 L 450.938,335.313 L 450.938,337.266z"/>
      <path style="fill: #000000" d="M 455.313 339.688 C 455.703,339.688 456.094,339.688 456.484,339.609 C 456.875,339.453 457.188,339.297 457.5,339.219 C 457.734,338.984 457.969,338.75 458.203,338.594 C 458.359,338.281 458.438,338.047 458.516,337.734 C 458.438,337.422 458.359,337.188 458.281,336.875 C 458.125,336.719 458.047,336.484 457.891,336.328 C 457.734,336.172 457.578,336.016 457.5,335.781 C 457.344,335.625 457.266,335.313 457.344,334.922 C 457.266,334.766 457.344,334.609 457.422,334.453 C 457.5,334.297 457.578,334.141 457.734,333.906 C 457.813,333.828 457.969,333.75 458.281,333.594 C 458.438,333.594 458.672,333.516 458.984,333.438 C 459.141,333.516 459.453,333.594 459.766,333.594 C 460,333.75 460.234,333.906 460.469,334.141 C 460.625,334.375 460.781,334.688 460.938,335 C 461.016,335.469 461.016,335.859 461.094,336.25 C 461.016,336.953 460.938,337.578 460.703,338.203 C 460.469,338.828 460.078,339.375 459.609,339.844 C 459.063,340.313 458.438,340.625 457.813,340.938 C 457.031,341.094 456.25,341.25 455.313,341.328 L 455.313,339.688z"/>
      <path style="fill: #000000" d="M 477.656 332.5 C 477.656,333.203 477.5,333.828 477.266,334.453 C 476.953,335.078 476.563,335.625 476.016,336.094 C 475.391,336.563 474.688,336.953 473.906,337.109 C 473.047,337.422 472.031,337.5 470.938,337.5 C 470.234,337.5 469.688,337.422 469.219,337.422 C 468.75,337.266 468.281,337.266 467.891,337.266 L 467.891,335.391 C 468.359,335.547 468.906,335.625 469.453,335.625 C 470,335.703 470.547,335.781 471.172,335.703 C 471.875,335.781 472.5,335.703 473.125,335.469 C 473.594,335.391 474.063,335.156 474.453,334.844 C 474.766,334.609 475,334.297 475.234,333.906 C 475.313,333.594 475.391,333.203 475.469,332.656 C 475.391,332.344 475.313,331.953 475.156,331.563 C 474.922,331.25 474.688,330.938 474.375,330.703 C 474.063,330.547 473.594,330.391 473.125,330.234 C 472.578,330.156 472.109,330.156 471.563,330.078 L 469.844,330.078 L 469.844,328.359 L 471.641,328.359 C 472.031,328.359 472.422,328.359 472.891,328.203 C 473.203,328.125 473.516,327.891 473.828,327.656 C 474.063,327.422 474.297,327.188 474.531,326.797 C 474.609,326.484 474.688,326.094 474.766,325.625 C 474.688,324.844 474.453,324.219 473.984,323.828 C 473.438,323.438 472.656,323.203 471.719,323.203 C 471.094,323.203 470.547,323.281 470.078,323.359 C 469.453,323.516 468.906,323.672 468.281,323.828 L 468.281,322.031 C 468.594,321.953 468.828,321.875 469.141,321.797 C 469.375,321.719 469.688,321.641 470.078,321.563 C 470.313,321.563 470.625,321.563 471.016,321.484 C 471.25,321.484 471.563,321.484 471.875,321.406 C 472.656,321.484 473.359,321.563 474.063,321.719 C 474.609,321.953 475.156,322.188 475.625,322.5 C 476.016,322.813 476.328,323.203 476.563,323.672 C 476.797,324.141 476.953,324.688 476.953,325.313 C 476.953,326.25 476.719,327.031 476.25,327.578 C 475.781,328.203 475.156,328.672 474.375,328.984 C 474.766,329.063 475.156,329.219 475.547,329.375 C 475.938,329.688 476.25,329.922 476.641,330.156 C 476.875,330.469 477.109,330.781 477.344,331.172 C 477.5,331.641 477.656,332.109 477.656,332.5 L 477.656,332.5z"/>
      <path style="fill: #000000" d="M 482.109 320 L 482.969,320 C 484.453,320.078 485.625,320.391 486.406,321.094 C 487.188,321.797 487.578,322.891 487.578,324.297 L 487.578,327.109 C 487.578,327.5 487.578,327.813 487.656,328.125 C 487.734,328.438 487.891,328.75 488.125,328.906 C 488.281,329.219 488.594,329.375 488.984,329.375 C 489.297,329.531 489.766,329.531 490.391,329.531 L 490.938,329.531 L 490.938,331.25 L 490.391,331.25 C 489.766,331.328 489.297,331.328 488.984,331.406 C 488.594,331.484 488.281,331.641 488.125,331.797 C 487.891,332.031 487.734,332.266 487.656,332.578 C 487.578,332.891 487.578,333.281 487.578,333.594 L 487.578,337.813 C 487.578,338.438 487.422,339.063 487.266,339.609 C 487.031,340.078 486.797,340.469 486.484,340.938 C 486.094,341.25 485.625,341.563 485.078,341.875 C 484.453,342.031 483.75,342.188 482.969,342.188 L 482.109,342.188 L 482.109,340.469 L 482.813,340.469 C 484.609,340.391 485.547,339.531 485.625,337.813 L 485.625,333.672 C 485.547,331.797 486.406,330.703 488.125,330.391 C 486.328,330.313 485.469,329.219 485.547,327.109 L 485.547,324.375 C 485.469,322.578 484.531,321.719 482.813,321.641 L 482.109,321.641 L 482.109,320z"/>
      <path style="fill: none; fill-opacity:0; stroke-width: 0.02; stroke-linecap: round; stroke: #000000" d="M 323.984 326.953 L 320.391,326.953 L 320.391,325.234 L 326.094,325.234 L 326.094,335.547 L 329.609,335.547 L 329.609,337.266 L 320,337.266 L 320,335.547 L 323.984,335.547 L 323.984,326.953"/>
      <path style="fill: none; fill-opacity:0; stroke-width: 0.02; stroke-linecap: round; stroke: #000000" d="M 324.688 320.234 C 324.844,320.313 325.078,320.313 325.313,320.391 C 325.469,320.469 325.625,320.625 325.859,320.703 C 325.938,320.938 326.094,321.094 326.172,321.25 C 326.25,321.484 326.25,321.719 326.328,321.875 C 326.25,322.188 326.25,322.344 326.172,322.5 C 326.094,322.734 325.938,322.969 325.859,323.047 C 325.625,323.281 325.469,323.359 325.313,323.438 C 325.078,323.516 324.844,323.594 324.688,323.516 C 324.375,323.594 324.219,323.516 324.063,323.438 C 323.828,323.359 323.594,323.281 323.516,323.047 C 323.281,322.969 323.203,322.734 323.125,322.5 C 323.047,322.344 322.969,322.188 323.047,321.875 C 322.969,321.719 323.047,321.484 323.125,321.25 C 323.203,321.094 323.281,320.938 323.516,320.703 C 323.594,320.625 323.828,320.469 324.063,320.391 C 324.219,320.313 324.375,320.313 324.688,320.234 L 324.688,320.234"/>
      <path style="fill: none; fill-opacity:0; stroke-width: 0.02; stroke-linecap: round; stroke: #000000" d="M 333.281 325.234 L 335.156,325.234 L 335.234,327.188 C 335.547,326.797 335.859,326.484 336.25,326.172 C 336.563,325.938 336.953,325.703 337.266,325.547 C 337.578,325.391 337.891,325.313 338.203,325.156 C 338.516,325.156 338.828,325.078 339.219,325.078 C 340.391,325.078 341.328,325.469 342.031,326.172 C 342.578,326.953 342.891,328.047 342.969,329.453 L 342.969,337.266 L 340.859,337.266 L 340.859,329.609 C 340.781,328.75 340.625,328.047 340.313,327.578 C 340,327.188 339.453,326.953 338.828,326.875 C 338.516,326.953 338.281,327.031 338.047,327.031 C 337.734,327.188 337.5,327.266 337.266,327.422 C 336.953,327.578 336.641,327.813 336.406,328.125 C 336.016,328.438 335.703,328.828 335.391,329.297 L 335.391,337.266 L 333.281,337.266 L 333.281,325.234"/>
      <path style="fill: none; fill-opacity:0; stroke-width: 0.02; stroke-linecap: round; stroke: #000000" d="M 346.172 331.484 C 346.094,330.547 346.25,329.609 346.563,328.828 C 346.797,328.047 347.188,327.422 347.734,326.797 C 348.203,326.328 348.828,325.859 349.609,325.547 C 350.313,325.313 351.094,325.234 352.031,325.156 C 352.344,325.234 352.734,325.234 353.125,325.234 C 353.438,325.313 353.828,325.391 354.219,325.391 L 354.219,320.391 L 356.328,320.391 L 356.328,337.266 L 354.453,337.266 L 354.375,335 C 353.75,335.938 353.125,336.563 352.5,336.875 C 351.719,337.344 351.016,337.5 350.313,337.5 C 349.609,337.5 348.984,337.422 348.516,337.109 C 347.891,336.875 347.5,336.406 347.188,335.859 C 346.797,335.391 346.484,334.766 346.406,333.984 C 346.172,333.281 346.094,332.5 346.172,331.484 L 346.172,331.484"/>
      <path style="fill: none; fill-opacity:0; stroke-width: 0.02; stroke-linecap: round; stroke: #000000" d="M 348.281 331.406 C 348.203,332.891 348.438,333.984 348.906,334.688 C 349.297,335.391 349.922,335.781 350.703,335.703 C 351.172,335.781 351.719,335.547 352.344,335 C 352.969,334.609 353.594,333.906 354.219,332.891 L 354.219,327.344 C 353.906,327.266 353.516,327.188 353.125,327.031 C 352.656,327.031 352.266,326.953 351.875,326.875 C 350.703,326.953 349.766,327.344 349.219,327.969 C 348.516,328.75 348.203,329.844 348.281,331.406 L 348.281,331.406"/>
      <path style="fill: none; fill-opacity:0; stroke-width: 0.02; stroke-linecap: round; stroke: #000000" d="M 370.391 330.625 C 370.313,331.016 370.313,331.25 370.391,331.406 C 370.313,331.563 370.313,331.797 370.391,331.953 L 361.953,331.953 C 361.875,333.203 362.188,334.141 362.969,334.766 C 363.594,335.547 364.609,335.859 365.938,335.781 C 366.25,335.859 366.563,335.859 366.953,335.781 C 367.266,335.781 367.656,335.703 367.969,335.625 C 368.281,335.625 368.594,335.625 368.906,335.469 C 369.219,335.469 369.453,335.391 369.766,335.234 L 369.766,336.953 C 369.141,337.188 368.516,337.266 367.813,337.344 C 367.109,337.422 366.406,337.5 365.625,337.5 C 364.531,337.5 363.594,337.422 362.969,337.109 C 362.188,336.875 361.641,336.406 361.172,335.859 C 360.703,335.391 360.313,334.766 360.078,333.906 C 359.844,333.203 359.766,332.344 359.766,331.328 C 359.766,330.469 359.844,329.688 360.078,328.906 C 360.313,328.203 360.703,327.5 361.172,326.953 C 361.641,326.406 362.188,326.016 362.891,325.625 C 363.516,325.313 364.297,325.078 365.234,325.078 C 366.016,325.078 366.719,325.234 367.422,325.469 C 367.969,325.781 368.516,326.172 368.984,326.563 C 369.375,327.109 369.688,327.656 370,328.359 C 370.156,329.063 370.313,329.844 370.391,330.625 L 370.391,330.625"/>
      <path style="fill: none; fill-opacity:0; stroke-width: 0.02; stroke-linecap: round; stroke: #000000" d="M 368.203 330.313 C 368.203,329.844 368.125,329.375 368.047,328.906 C 367.891,328.516 367.734,328.125 367.5,327.734 C 367.188,327.5 366.797,327.266 366.484,327.031 C 366.016,326.875 365.547,326.719 365.078,326.719 C 364.609,326.719 364.219,326.875 363.828,327.031 C 363.438,327.266 363.125,327.5 362.891,327.734 C 362.578,328.125 362.344,328.516 362.188,328.906 C 361.953,329.375 361.875,329.844 361.953,330.313 L 368.203,330.313"/>
      <path style="fill: none; fill-opacity:0; stroke-width: 0.02; stroke-linecap: round; stroke: #000000" d="M 384.531 337.266 L 381.797,337.266 L 378.516,332.656 L 375.313,337.266 L 372.656,337.266 L 377.266,331.25 L 372.813,325.234 L 375.547,325.234 L 378.672,329.844 L 381.797,325.234 L 384.297,325.234 L 379.844,331.328 L 384.531,337.266"/>
      <path style="fill: none; fill-opacity:0; stroke-width: 0.02; stroke-linecap: round; stroke: #000000" d="M 396.172 336.172 L 394.922,337.422 L 386.875,330.781 L 394.922,324.063 L 396.172,325.391 L 389.688,330.703 L 396.172,336.172"/>
      <path style="fill: none; fill-opacity:0; stroke-width: 0.02; stroke-linecap: round; stroke: #000000" d="M 410.703 337.266 L 400.391,337.266 L 400.391,335.391 L 404.453,331.406 C 405.078,330.781 405.625,330.234 406.094,329.688 C 406.406,329.297 406.719,328.906 407.031,328.438 C 407.188,328.125 407.344,327.734 407.5,327.266 C 407.5,326.953 407.578,326.563 407.656,326.094 C 407.578,325.781 407.5,325.391 407.5,325.078 C 407.344,324.766 407.188,324.453 406.953,324.141 C 406.719,323.906 406.406,323.75 406.094,323.516 C 405.703,323.438 405.313,323.359 404.922,323.281 C 404.141,323.359 403.594,323.516 403.125,323.75 C 402.578,324.063 402.031,324.375 401.641,324.844 L 400.469,323.516 C 401.016,322.969 401.719,322.422 402.5,322.031 C 403.203,321.641 404.141,321.484 405.234,321.406 C 405.859,321.484 406.484,321.563 407.109,321.719 C 407.656,321.953 408.125,322.266 408.594,322.656 C 408.984,323.047 409.297,323.516 409.531,324.063 C 409.688,324.688 409.766,325.313 409.844,326.016 C 409.766,326.641 409.688,327.188 409.609,327.656 C 409.375,328.203 409.141,328.75 408.906,329.219 C 408.516,329.766 408.125,330.313 407.656,330.781 C 407.109,331.406 406.563,331.953 405.938,332.5 L 403.125,335.313 L 410.703,335.313 L 410.703,337.266"/>
      <path style="fill: none; fill-opacity:0; stroke-width: 0.02; stroke-linecap: round; stroke: #000000" d="M 414.609 325.391 L 415.859,324.063 L 423.906,330.781 L 415.859,337.422 L 414.609,336.172 L 421.094,330.781 L 414.609,325.391"/>
      <path style="fill: none; fill-opacity:0; stroke-width: 0.02; stroke-linecap: round; stroke: #000000" d="M 436.328 342.188 L 435.469,342.188 C 433.906,342.188 432.734,341.797 432.031,341.094 C 431.25,340.313 430.859,339.219 430.938,337.813 L 430.938,333.672 C 430.859,333.359 430.859,333.047 430.781,332.656 C 430.625,332.422 430.469,332.109 430.313,331.875 C 430.078,331.719 429.766,331.563 429.453,331.406 C 429.063,331.328 428.594,331.328 428.047,331.25 L 427.578,331.25 L 427.578,329.531 L 428.047,329.531 C 428.594,329.531 429.063,329.531 429.531,329.453 C 429.844,329.375 430.156,329.219 430.391,328.984 C 430.547,328.828 430.703,328.594 430.781,328.281 C 430.859,328.047 430.859,327.656 430.938,327.188 L 430.938,324.297 C 430.859,323.75 430.938,323.203 431.172,322.578 C 431.25,322.109 431.563,321.641 431.953,321.172 C 432.266,320.859 432.734,320.547 433.359,320.313 C 433.906,320.156 434.609,320.078 435.469,320 L 436.328,320 L 436.328,321.641 L 435.625,321.641 C 433.75,321.719 432.891,322.578 432.891,324.297 L 432.891,327.109 C 432.891,329.063 432.031,330.156 430.313,330.391 C 432.031,330.625 432.891,331.719 432.891,333.672 L 432.891,337.734 C 432.891,339.531 433.75,340.391 435.625,340.469 L 436.328,340.469 L 436.328,342.188"/>
      <path style="fill: none; fill-opacity:0; stroke-width: 0.02; stroke-linecap: round; stroke: #000000" d="M 450.938 337.266 L 441.172,337.266 L 441.172,335.313 L 445.156,335.313 L 445.156,323.906 L 441.406,325.938 L 440.703,324.219 L 445.625,321.563 L 447.5,321.563 L 447.5,335.313 L 450.938,335.313 L 450.938,337.266"/>
      <path style="fill: none; fill-opacity:0; stroke-width: 0.02; stroke-linecap: round; stroke: #000000" d="M 455.313 339.688 C 455.703,339.688 456.094,339.688 456.484,339.609 C 456.875,339.453 457.188,339.297 457.5,339.219 C 457.734,338.984 457.969,338.75 458.203,338.594 C 458.359,338.281 458.438,338.047 458.516,337.734 C 458.438,337.422 458.359,337.188 458.281,336.875 C 458.125,336.719 458.047,336.484 457.891,336.328 C 457.734,336.172 457.578,336.016 457.5,335.781 C 457.344,335.625 457.266,335.313 457.344,334.922 C 457.266,334.766 457.344,334.609 457.422,334.453 C 457.5,334.297 457.578,334.141 457.734,333.906 C 457.813,333.828 457.969,333.75 458.281,333.594 C 458.438,333.594 458.672,333.516 458.984,333.438 C 459.141,333.516 459.453,333.594 459.766,333.594 C 460,333.75 460.234,333.906 460.469,334.141 C 460.625,334.375 460.781,334.688 460.938,335 C 461.016,335.469 461.016,335.859 461.094,336.25 C 461.016,336.953 460.938,337.578 460.703,338.203 C 460.469,338.828 460.078,339.375 459.609,339.844 C 459.063,340.313 458.438,340.625 457.813,340.938 C 457.031,341.094 456.25,341.25 455.313,341.328 L 455.313,339.688"/>
      <path style="fill: none; fill-opacity:0; stroke-width: 0.02; stroke-linecap: round; stroke: #000000" d="M 477.656 332.5 C 477.656,333.203 477.5,333.828 477.266,334.453 C 476.953,335.078 476.563,335.625 476.016,336.094 C 475.391,336.563 474.688,336.953 473.906,337.109 C 473.047,337.422 472.031,337.5 470.938,337.5 C 470.234,337.5 469.688,337.422 469.219,337.422 C 468.75,337.266 468.281,337.266 467.891,337.266 L 467.891,335.391 C 468.359,335.547 468.906,335.625 469.453,335.625 C 470,335.703 470.547,335.781 471.172,335.703 C 471.875,335.781 472.5,335.703 473.125,335.469 C 473.594,335.391 474.063,335.156 474.453,334.844 C 474.766,334.609 475,334.297 475.234,333.906 C 475.313,333.594 475.391,333.203 475.469,332.656 C 475.391,332.344 475.313,331.953 475.156,331.563 C 474.922,331.25 474.688,330.938 474.375,330.703 C 474.063,330.547 473.594,330.391 473.125,330.234 C 472.578,330.156 472.109,330.156 471.563,330.078 L 469.844,330.078 L 469.844,328.359 L 471.641,328.359 C 472.031,328.359 472.422,328.359 472.891,328.203 C 473.203,328.125 473.516,327.891 473.828,327.656 C 474.063,327.422 474.297,327.188 474.531,326.797 C 474.609,326.484 474.688,326.094 474.766,325.625 C 474.688,324.844 474.453,324.219 473.984,323.828 C 473.438,323.438 472.656,323.203 471.719,323.203 C 471.094,323.203 470.547,323.281 470.078,323.359 C 469.453,323.516 468.906,323.672 468.281,323.828 L 468.281,322.031 C 468.594,321.953 468.828,321.875 469.141,321.797 C 469.375,321.719 469.688,321.641 470.078,321.563 C 470.313,321.563 470.625,321.563 471.016,321.484 C 471.25,321.484 471.563,321.484 471.875,321.406 C 472.656,321.484 473.359,321.563 474.063,321.719 C 474.609,321.953 475.156,322.188 475.625,322.5 C 476.016,322.813 476.328,323.203 476.563,323.672 C 476.797,324.141 476.953,324.688 476.953,325.313 C 476.953,326.25 476.719,327.031 476.25,327.578 C 475.781,328.203 475.156,328.672 474.375,328.984 C 474.766,329.063 475.156,329.219 475.547,329.375 C 475.938,329.688 476.25,329.922 476.641,330.156 C 476.875,330.469 477.109,330.781 477.344,331.172 C 477.5,331.641 477.656,332.109 477.656,332.5 L 477.656,332.5"/>
      <path style="fill: none; fill-opacity:0; stroke-width: 0.02; stroke-linecap: round; stroke: #000000" d="M 482.109 320 L 482.969,320 C 484.453,320.078 485.625,320.391 486.406,321.094 C 487.188,321.797 487.578,322.891 487.578,324.297 L 487.578,327.109 C 487.578,327.5 487.578,327.813 487.656,328.125 C 487.734,328.438 487.891,328.75 488.125,328.906 C 488.281,329.219 488.594,329.375 488.984,329.375 C 489.297,329.531 489.766,329.531 490.391,329.531 L 490.938,329.531 L 490.938,331.25 L 490.391,331.25 C 489.766,331.328 489.297,331.328 488.984,331.406 C 488.594,331.484 488.281,331.641 488.125,331.797 C 487.891,332.031 487.734,332.266 487.656,332.578 C 487.578,332.891 487.578,333.281 487.578,333.594 L 487.578,337.813 C 487.578,338.438 487.422,339.063 487.266,339.609 C 487.031,340.078 486.797,340.469 486.484,340.938 C 486.094,341.25 485.625,341.563 485.078,341.875 C 484.453,342.031 483.75,342.188 482.969,342.188 L 482.109,342.188 L 482.109,340.469 L 482.813,340.469 C 484.609,340.391 485.547,339.531 485.625,337.813 L 485.625,333.672 C 485.547,331.797 486.406,330.703 488.125,330.391 C 486.328,330.313 485.469,329.219 485.547,327.109 L 485.547,324.375 C 485.469,322.578 484.531,321.719 482.813,321.641 L 482.109,321.641 L 482.109,320"/>
    </g>
  </g>
</svg>
